REM DIRINDEX 1\2,1\3,1\4,1\5
REM DIRNAME folder01,folder02,folder03,folder04,folder05
TITLE ""
FILE "166.mp3" MP3
  TRACK 01 AUDIO
    TITLE "0:"
    INDEX 01 00:00:00
  TRACK 02 AUDIO
    TITLE "2:cjc046_4927"
    INDEX 01 00:00:13
  TRACK 03 AUDIO
    TITLE "0:"
    INDEX 01 00:01:19
  TRACK 04 AUDIO
    TITLE "3:cjc046_4928"
    INDEX 01 00:01:40
  TRACK 05 AUDIO
    TITLE "0:"
    INDEX 01 00:02:67
  TRACK 06 AUDIO
    TITLE "4:cjc046_4929"
    INDEX 01 00:03:06
  TRACK 07 AUDIO
    TITLE "0:"
    INDEX 01 00:04:11
  TRACK 08 AUDIO
    TITLE "2:cjc046_4930"
    INDEX 01 00:05:22
  TRACK 09 AUDIO
    TITLE "0:"
    INDEX 01 00:06:35
  TRACK 10 AUDIO
    TITLE "3:cjc046_4931"
    INDEX 01 00:06:53
  TRACK 11 AUDIO
    TITLE "0:"
    INDEX 01 00:07:62
  TRACK 12 AUDIO
    TITLE "4:cjc046_4932"
    INDEX 01 00:08:05
  TRACK 13 AUDIO
    TITLE "0:"
    INDEX 01 00:09:16
  TRACK 14 AUDIO
    TITLE "2:cjc046_4933"
    INDEX 01 00:10:27
  TRACK 15 AUDIO
    TITLE "0:"
    INDEX 01 00:11:29
  TRACK 16 AUDIO
    TITLE "3:cjc046_4934"
    INDEX 01 00:11:46
  TRACK 17 AUDIO
    TITLE "0:"
    INDEX 01 00:13:47
  TRACK 18 AUDIO
    TITLE "4:cjc046_4935"
    INDEX 01 00:13:65
  TRACK 19 AUDIO
    TITLE "0:"
    INDEX 01 00:14:68
  TRACK 20 AUDIO
    TITLE "2:cjc046_4936"
    INDEX 01 00:16:00
  TRACK 21 AUDIO
    TITLE "0:"
    INDEX 01 00:17:23
  TRACK 22 AUDIO
    TITLE "3:cjc046_4937"
    INDEX 01 00:17:43
  TRACK 23 AUDIO
    TITLE "0:"
    INDEX 01 00:18:56
  TRACK 24 AUDIO
    TITLE "4:cjc046_4938"
    INDEX 01 00:18:72
  TRACK 25 AUDIO
    TITLE "0:"
    INDEX 01 00:20:20
  TRACK 26 AUDIO
    TITLE "2:cjc046_4939"
    INDEX 01 00:21:31
  TRACK 27 AUDIO
    TITLE "0:"
    INDEX 01 00:22:25
  TRACK 28 AUDIO
    TITLE "3:cjc046_4940"
    INDEX 01 00:22:36
  TRACK 29 AUDIO
    TITLE "0:"
    INDEX 01 00:23:51
  TRACK 30 AUDIO
    TITLE "4:cjc046_4941"
    INDEX 01 00:23:69
  TRACK 31 AUDIO
    TITLE "0:"
    INDEX 01 00:24:65
  TRACK 32 AUDIO
    TITLE "2:cjc046_4942"
    INDEX 01 00:25:66
  TRACK 33 AUDIO
    TITLE "0:"
    INDEX 01 00:27:16
  TRACK 34 AUDIO
    TITLE "3:cjc046_4943"
    INDEX 01 00:27:38
  TRACK 35 AUDIO
    TITLE "0:"
    INDEX 01 00:28:70
  TRACK 36 AUDIO
    TITLE "4:cjc046_4944"
    INDEX 01 00:29:01
  TRACK 37 AUDIO
    TITLE "0:"
    INDEX 01 00:30:26
  TRACK 38 AUDIO
    TITLE "2:cjc046_4945"
    INDEX 01 00:31:37
  TRACK 39 AUDIO
    TITLE "0:"
    INDEX 01 00:32:58
  TRACK 40 AUDIO
    TITLE "3:cjc046_4946"
    INDEX 01 00:33:05
  TRACK 41 AUDIO
    TITLE "0:"
    INDEX 01 00:34:32
  TRACK 42 AUDIO
    TITLE "4:cjc046_4947"
    INDEX 01 00:34:47
  TRACK 43 AUDIO
    TITLE "0:"
    INDEX 01 00:35:70
  TRACK 44 AUDIO
    TITLE "2:cjc046_4948"
    INDEX 01 00:37:03
  TRACK 45 AUDIO
    TITLE "0:"
    INDEX 01 00:37:73
  TRACK 46 AUDIO
    TITLE "3:cjc046_4949"
    INDEX 01 00:38:18
  TRACK 47 AUDIO
    TITLE "0:"
    INDEX 01 00:40:13
  TRACK 48 AUDIO
    TITLE "4:cjc046_4950"
    INDEX 01 00:40:23
  TRACK 49 AUDIO
    TITLE "0:"
    INDEX 01 00:41:20
  TRACK 50 AUDIO
    TITLE "2:cjc046_4951"
    INDEX 01 00:42:27
  TRACK 51 AUDIO
    TITLE "0:"
    INDEX 01 00:43:31
  TRACK 52 AUDIO
    TITLE "3:cjc046_4952"
    INDEX 01 00:43:52
  TRACK 53 AUDIO
    TITLE "0:"
    INDEX 01 00:44:67
  TRACK 54 AUDIO
    TITLE "4:cjc046_4953"
    INDEX 01 00:45:10
  TRACK 55 AUDIO
    TITLE "0:"
    INDEX 01 00:46:15
  TRACK 56 AUDIO
    TITLE "2:cjc046_4954"
    INDEX 01 00:47:21
  TRACK 57 AUDIO
    TITLE "0:"
    INDEX 01 00:48:22
  TRACK 58 AUDIO
    TITLE "3:cjc046_4955"
    INDEX 01 00:48:42
  TRACK 59 AUDIO
    TITLE "0:"
    INDEX 01 00:49:35
  TRACK 60 AUDIO
    TITLE "4:cjc046_4956"
    INDEX 01 00:49:51
  TRACK 61 AUDIO
    TITLE "0:"
    INDEX 01 00:50:52
  TRACK 62 AUDIO
    TITLE "2:cjc046_4957"
    INDEX 01 00:51:62
  TRACK 63 AUDIO
    TITLE "0:"
    INDEX 01 00:53:02
  TRACK 64 AUDIO
    TITLE "3:cjc046_4958"
    INDEX 01 00:53:21
  TRACK 65 AUDIO
    TITLE "0:"
    INDEX 01 00:55:51
  TRACK 66 AUDIO
    TITLE "4:cjc046_4959"
    INDEX 01 00:55:61
  TRACK 67 AUDIO
    TITLE "0:"
    INDEX 01 00:57:01
  TRACK 68 AUDIO
    TITLE "2:cjc046_4960"
    INDEX 01 00:58:11
  TRACK 69 AUDIO
    TITLE "0:"
    INDEX 01 00:59:14
  TRACK 70 AUDIO
    TITLE "3:cjc046_4961"
    INDEX 01 00:59:36
  TRACK 71 AUDIO
    TITLE "0:"
    INDEX 01 01:00:49
  TRACK 72 AUDIO
    TITLE "4:cjc046_4962"
    INDEX 01 01:00:60
  TRACK 73 AUDIO
    TITLE "0:"
    INDEX 01 01:01:64
  TRACK 74 AUDIO
    TITLE "2:cjc046_4963"
    INDEX 01 01:02:73
  TRACK 75 AUDIO
    TITLE "0:"
    INDEX 01 01:04:05
  TRACK 76 AUDIO
    TITLE "3:cjc046_4964"
    INDEX 01 01:04:27
  TRACK 77 AUDIO
    TITLE "0:"
    INDEX 01 01:05:56
  TRACK 78 AUDIO
    TITLE "4:cjc046_4965"
    INDEX 01 01:06:04
  TRACK 79 AUDIO
    TITLE "0:"
    INDEX 01 01:07:08
  TRACK 80 AUDIO
    TITLE "2:cjc046_4966"
    INDEX 01 01:08:21
  TRACK 81 AUDIO
    TITLE "0:"
    INDEX 01 01:09:26
  TRACK 82 AUDIO
    TITLE "3:cjc046_4967"
    INDEX 01 01:09:44
  TRACK 83 AUDIO
    TITLE "0:"
    INDEX 01 01:10:59
  TRACK 84 AUDIO
    TITLE "4:cjc046_4968"
    INDEX 01 01:11:03
  TRACK 85 AUDIO
    TITLE "0:"
    INDEX 01 01:12:11
  TRACK 86 AUDIO
    TITLE "2:cjc046_4969"
    INDEX 01 01:13:18
  TRACK 87 AUDIO
    TITLE "0:"
    INDEX 01 01:14:14
  TRACK 88 AUDIO
    TITLE "3:cjc046_4970"
    INDEX 01 01:14:39
  TRACK 89 AUDIO
    TITLE "0:"
    INDEX 01 01:15:62
  TRACK 90 AUDIO
    TITLE "4:cjc046_4971"
    INDEX 01 01:16:07
  TRACK 91 AUDIO
    TITLE "0:"
    INDEX 01 01:17:02
  TRACK 92 AUDIO
    TITLE "2:cjc046_4972"
    INDEX 01 01:18:13
  TRACK 93 AUDIO
    TITLE "0:"
    INDEX 01 01:19:38
  TRACK 94 AUDIO
    TITLE "3:cjc046_4973"
    INDEX 01 01:19:56
  TRACK 95 AUDIO
    TITLE "0:"
    INDEX 01 01:21:08
  TRACK 96 AUDIO
    TITLE "4:cjc046_4974"
    INDEX 01 01:21:20
  TRACK 97 AUDIO
    TITLE "0:"
    INDEX 01 01:22:46
